<?xml version="1.0" encoding="UTF-8" standalone="no"?>
<!-- Created with Inkscape (http://www.inkscape.org/) -->

<svg
   width="34.356186mm"
   height="39.671116mm"
   viewBox="0 0 34.356186 39.671116"
   version="1.1"
   id="svg1"
   xml:space="preserve"
   sodipodi:docname="logo.svg"
   inkscape:version="1.3.2 (091e20e, 2023-11-25)"
   xmlns:inkscape="http://www.inkscape.org/namespaces/inkscape"
   xmlns:sodipodi="http://sodipodi.sourceforge.net/DTD/sodipodi-0.dtd"
   xmlns="http://www.w3.org/2000/svg"
   xmlns:svg="http://www.w3.org/2000/svg"><sodipodi:namedview
     id="namedview1"
     pagecolor="#505050"
     bordercolor="#eeeeee"
     borderopacity="1"
     inkscape:showpageshadow="0"
     inkscape:pageopacity="0"
     inkscape:pagecheckerboard="0"
     inkscape:deskcolor="#d1d1d1"
     inkscape:document-units="mm"
     inkscape:zoom="1.7381805"
     inkscape:cx="105.85782"
     inkscape:cy="58.106739"
     inkscape:window-width="1920"
     inkscape:window-height="1007"
     inkscape:window-x="0"
     inkscape:window-y="0"
     inkscape:window-maximized="1"
     inkscape:current-layer="layer1" /><defs
     id="defs1" /><g
     inkscape:label="Layer 1"
     inkscape:groupmode="layer"
     id="layer1"
     transform="translate(-31.560534,75.847126)"><path
       id="path14"
       style="fill:#1e6363;stroke-width:0.658312;stroke-linecap:square;paint-order:markers fill stroke"
       d="m 48.738627,-75.847126 -17.178093,9.917904 v 19.835557 c 5.726026,3.30588 11.452067,6.611773 17.178093,9.917654 l 17.178093,-9.917654 v -19.835557 c -5.726025,-3.305965 -11.452068,-6.61194 -17.178093,-9.917904 z m -11.615603,8.17349 h 23.230957 v 23.324135 H 37.123024 Z m 1.959249,1.95925 v 1.959249 h 1.95925 v -1.959249 z m 2.715171,0 0.03797,1.936516 16.652744,0.02273 v -1.959249 z m -2.715171,3.82507 v 15.580566 h 19.405886 v -15.580566 z m 3.200049,2.151602 h 12.91236 c 0.564621,0 1.057397,0.293012 1.337975,0.735187 l -7.79403,5.472058 -7.79378,-5.472058 c 0.280583,-0.442146 0.772878,-0.735187 1.337475,-0.735187 z m -1.584536,1.643491 5.839777,4.100109 -5.75859,4.043154 c -0.0521,-0.157406 -0.08119,-0.325297 -0.08119,-0.500617 z m 16.081682,0 v 7.642646 c 0,0.175317 -0.02909,0.343214 -0.08119,0.500617 l -5.75859,-4.043154 z m -6.610187,4.640945 6.026634,4.231509 c -0.272595,0.22189 -0.620755,0.354978 -1.001233,0.354978 h -12.91236 c -0.380477,0 -0.728388,-0.13309 -1.000983,-0.354978 l 6.026634,-4.231259 1.225061,0.860091 c 0.059,0.04142 0.122981,0.05965 0.186358,0.06095 0.0064,6.29e-4 0.01282,2.51e-4 0.01924,4.84e-4 0.0065,-2.16e-4 0.0126,1.77e-4 0.01898,-4.84e-4 0.06338,-0.0013 0.127611,-0.01953 0.186607,-0.06095 z" /></g></svg>
